HIERARCHY
ROOT hip
{
  OFFSET 0 0 0
  CHANNELS 6 Xposition Yposition Zposition Zrotation Yrotation Xrotation
  JOINT abdomen
  {
    OFFSET 0 20.6881 -0.73152
    CHANNELS 3 Zrotation Xrotation Yrotation
    JOINT chest
    {
      OFFSET 0 11.7043 -0.48768
      CHANNELS 3 Zrotation Xrotation Yrotation
      JOINT neck
      {
        OFFSET 0 22.1894 -2.19456
        CHANNELS 3 Zrotation Xrotation Yrotation
        JOINT head
        {
          OFFSET -0.24384 7.07133 1.2192
          CHANNELS 3 Zrotation Xrotation Yrotation
          JOINT leftEye
          {
            OFFSET 4.14528 8.04674 8.04672
            CHANNELS 3 Zrotation Xrotation Yrotation
            End Site
            {
              OFFSET 1 0 0
            }
          }
          JOINT rightEye
          {
            OFFSET -3.6576 8.04674 8.04672
            CHANNELS 3 Zrotation Xrotation Yrotation
            End Site
            {
              OFFSET 1 0 0
            }
          }
        }
      }
      JOINT rCollar
      {
        OFFSET -2.68224 19.2634 -4.8768
        CHANNELS 3 Zrotation Xrotation Yrotation
        JOINT rShldr
        {
          OFFSET -8.77824 -1.95073 1.46304
          CHANNELS 3 Zrotation Xrotation Yrotation
          JOINT rForeArm
          {
            OFFSET -28.1742 -1.7115 0.48768
            CHANNELS 3 Zrotation Xrotation Yrotation
            JOINT rHand
            {
              OFFSET -22.5879 0.773209 7.07136
              CHANNELS 3 Zrotation Xrotation Yrotation
              JOINT rThumb1
              {
                OFFSET -1.2192 -0.487915 3.41376
                CHANNELS 3 Zrotation Xrotation Yrotation
                JOINT rThumb2
                {
                  OFFSET -3.37035 -0.52449 3.41376
                  CHANNELS 3 Zrotation Xrotation Yrotation
                  End Site
                  {
                    OFFSET -1.78271 -1.18214 1.43049
                  }
                }
              }
              JOINT rIndex1
              {
                OFFSET -7.75947 0.938293 5.60832
                CHANNELS 3 Zrotation Xrotation Yrotation
                JOINT rIndex2
                {
                  OFFSET -2.54057 -0.884171 1.56538
                  CHANNELS 3 Zrotation Xrotation Yrotation
                  End Site
                  {
                    OFFSET -1.62519 -0.234802 1.16502
                  }
                }
              }
              JOINT rMid1
              {
                OFFSET -8.24714 1.18213 3.41376
                CHANNELS 3 Zrotation Xrotation Yrotation
                JOINT rMid2
                {
                  OFFSET -3.10165 -0.590103 1.0647
                  CHANNELS 3 Zrotation Xrotation Yrotation
                  End Site
                  {
                    OFFSET -2.48547 -0.328903 0.83742
                  }
                }
              }
              JOINT rRing1
              {
                OFFSET -8.82822 0.546677 1.51678
                CHANNELS 3 Zrotation Xrotation Yrotation
                JOINT rRing2
                {
                  OFFSET -2.60934 -0.819778 -0.0198488
                  CHANNELS 3 Zrotation Xrotation Yrotation
                  End Site
                  {
                    OFFSET -2.33842 -0.294052 0.168128
                  }
                }
              }
              JOINT rPinky1
              {
                OFFSET -8.27202 -0.0477905 -0.4584
                CHANNELS 3 Zrotation Xrotation Yrotation
                JOINT rPinky2
                {
                  OFFSET -1.82734 -0.647385 -0.700984
                  CHANNELS 3 Zrotation Xrotation Yrotation
                  End Site
                  {
                    OFFSET -1.69225 -0.51767 -0.607171
                  }
                }
              }
            }
          }
        }
      }
      JOINT lCollar
      {
        OFFSET 2.68224 19.2634 -4.8768
        CHANNELS 3 Zrotation Xrotation Yrotation
        JOINT lShldr
        {
          OFFSET 8.77824 -1.95073 1.46304
          CHANNELS 3 Zrotation Xrotation Yrotation
          JOINT lForeArm
          {
            OFFSET 28.1742 -1.7115 0.48768
            CHANNELS 3 Zrotation Xrotation Yrotation
            JOINT lHand
            {
              OFFSET 22.5879 0.773209 7.07136
              CHANNELS 3 Zrotation Xrotation Yrotation
              JOINT lThumb1
              {
                OFFSET 1.2192 -0.487915 3.41376
                CHANNELS 3 Zrotation Xrotation Yrotation
                JOINT lThumb2
                {
                  OFFSET 3.37035 -0.52449 3.41376
                  CHANNELS 3 Zrotation Xrotation Yrotation
                  End Site
                  {
                    OFFSET 1.78271 -1.18214 1.43049
                  }
                }
              }
              JOINT lIndex1
              {
                OFFSET 7.75947 0.938293 5.60832
                CHANNELS 3 Zrotation Xrotation Yrotation
                JOINT lIndex2
                {
                  OFFSET 2.54057 -0.884171 1.56538
                  CHANNELS 3 Zrotation Xrotation Yrotation
                  End Site
                  {
                    OFFSET 1.62519 -0.234802 1.16502
                  }
                }
              }
              JOINT lMid1
              {
                OFFSET 8.24714 1.18213 3.41376
                CHANNELS 3 Zrotation Xrotation Yrotation
                JOINT lMid2
                {
                  OFFSET 3.10165 -0.590103 1.0647
                  CHANNELS 3 Zrotation Xrotation Yrotation
                  End Site
                  {
                    OFFSET 2.48547 -0.328903 0.83742
                  }
                }
              }
              JOINT lRing1
              {
                OFFSET 8.82822 0.546677 1.51678
                CHANNELS 3 Zrotation Xrotation Yrotation
                JOINT lRing2
                {
                  OFFSET 2.60934 -0.819778 -0.0198488
                  CHANNELS 3 Zrotation Xrotation Yrotation
                  End Site
                  {
                    OFFSET 2.33842 -0.294052 0.168128
                  }
                }
              }
              JOINT lPinky1
              {
                OFFSET 8.27202 -0.0477905 -0.4584
                CHANNELS 3 Zrotation Xrotation Yrotation
                JOINT lPinky2
                {
                  OFFSET 1.82734 -0.647385 -0.700984
                  CHANNELS 3 Zrotation Xrotation Yrotation
                  End Site
                  {
                    OFFSET 1.69225 -0.51767 -0.607171
                  }
                }
              }
            }
          }
        }
      }
    }
  }
  JOINT rButtock
  {
    OFFSET -8.77824 4.35084 1.2192
    CHANNELS 3 Zrotation Xrotation Yrotation
    JOINT rThigh
    {
      OFFSET 0 -1.70687 -2.19456
      CHANNELS 3 Zrotation Xrotation Yrotation
      JOINT rShin
      {
        OFFSET 0 -36.8199 0.73152
        CHANNELS 3 Zrotation Xrotation Yrotation
        JOINT rFoot
        {
          OFFSET 0.73152 -45.1104 -5.12064
          CHANNELS 3 Zrotation Xrotation Yrotation
          End Site
          {
            OFFSET -1.1221 -3.69964 12.103
          }
        }
      }
    }
  }
  JOINT lButtock
  {
    OFFSET 8.77824 4.35084 1.2192
    CHANNELS 3 Zrotation Xrotation Yrotation
    JOINT lThigh
    {
      OFFSET 0 -1.70687 -2.19456
      CHANNELS 3 Zrotation Xrotation Yrotation
      JOINT lShin
      {
        OFFSET 0 -36.8199 0.73152
        CHANNELS 3 Zrotation Xrotation Yrotation
        JOINT lFoot
        {
          OFFSET -0.73152 -45.1104 -5.12064
          CHANNELS 3 Zrotation Xrotation Yrotation
          End Site
          {
            OFFSET 1.1221 -3.69964 12.103
          }
        }
      }
    }
  }
}
MOTION
Frames:	4
Frame Time:	0.00833333
201.06679 74.291954 40.16213 -15.975714 69.657974 -15.208477 3.2391384 14.01639 14.601952 -2.570519 -12.45369 4.3094172 -5.799655 17.758636 -9.131052 7.5611615 -33.740417 -18.461008 -0.044651497 -0.32463887 -0.00584907 0.008568972 0.1645701 0.046575475 0.00976187 -0.10170587 0.023730896 4.4367814 -10.790616 86.91343 -24.854958 -21.37478 50.120033 -0.05014084 -35.3633 -6.8584967 -0.03647168 0.07455156 0.06631902 -0.06710626 -0.06222897 -0.040189575 -0.115185864 0.16446973 -0.13611957 7.704688 5.3730493 0.3515144 -0.05387741 -0.08499156 -0.02668845 2.9019248 0.997796 0.024099832 0.005322593 0.15407291 -0.06044407 10.191287 0.80060524 0.012668163 -0.127814 -0.19225307 0.03546872 2.281357 -0.55774075 -0.012411907 -0.042562347 -0.09381398 0.21590954 -2.3517153 81.211845 151.07475 29.03056 -38.717194 -86.49149 1.673 -8.643042 -0.6583998 -0.079576395 -0.088254005 0.16686939 -0.043901514 -0.030585567 0.03545776 0.14655566 0.25093472 0.117718495 -7.7414875 5.4974914 -0.48362002 0.030690514 0.19650397 0.10333492 -2.9980662 1.1438019 -0.27934715 0.047834855 -0.11880585 -0.22714324 -10.256992 0.59035933 -0.21559778 -0.06332467 -0.0032310402 0.038115267 -2.1645522 -0.59763926 0.1688373 0.043948848 0.02461513 0.14768215 -30.964317 -39.00803 -41.76394 12.15152 74.17083 5.866056 -0.95457953 -2.761415 7.0840163 0.17406923 -0.061113544 -0.04237354 30.069958 -54.18684 29.493994 1.5610787 72.97237 -2.99837 4.9483595 -10.652995 11.060878
202.95511 71.62064 38.549034 -14.6954 68.4621 -14.638072 5.474008 13.478286 14.967905 -2.610563 -12.557778 4.3805547 -6.11279 17.43347 -10.394976 7.8568735 -33.89854 -19.88224 -0.08393354 -0.23076639 -0.003064536 0.055554003 0.1647456 0.04107063 0.0471173 -0.031196814 0.008843255 6.2558126 -10.121206 83.600365 -24.055155 -21.899317 50.038826 0.37177005 -38.596016 -5.6802535 0.015903905 0.09232901 0.049267218 -0.10530787 -0.07376403 -0.0013522772 -0.08919561 0.17599456 -0.09369077 7.68171 5.3975115 0.39819378 -0.0048424173 -0.030566473 -0.05324206 2.8774166 1.0068583 0.005973953 0.0749046 0.09518274 -0.0012973559 10.229478 0.80030066 0.04051317 -0.08841325 -0.18404481 0.08967913 2.2634072 -0.567669 -0.01753407 -0.05281244 -0.09149165 0.24583386 -37.535816 86.0569 132.7542 29.770613 -38.825695 -85.32865 1.6280483 -4.170605 -2.3764331 -0.07364669 -0.0779346 0.18938057 0.014921633 -0.0004986031 -0.012755138 0.120349206 0.2369092 0.15556225 -7.7645993 5.5407815 -0.5054583 0.007613179 0.19861251 0.1497586 -3.0259686 1.0961038 -0.23512062 0.03204297 -0.1357408 -0.16152878 -10.295724 0.58056134 -0.21954368 -0.042096496 0.021535402 0.07708709 -2.135389 -0.6383877 0.15590313 0.030560886 -0.036800705 0.12294753 -26.457308 -42.576935 -34.489937 10.031663 74.67383 6.9644384 -2.5524986 -0.9845553 6.2036414 0.19726285 -0.1157122 -0.053385943 30.285227 -56.304596 30.424149 2.7543316 75.85697 -2.7706618 5.4465146 -12.384942 10.879223
204.86504 68.14651 37.258842 -15.523351 68.3683 -15.583324 6.2490726 13.787151 15.296549 -2.1754134 -12.658299 4.4036636 -6.5506096 17.37898 -11.423595 8.810151 -34.50272 -20.939999 -0.10647637 -0.1438903 -0.009760478 0.076712444 0.13830437 0.03444669 0.07594742 0.018587466 -0.019756665 5.680925 -9.703215 81.44875 -23.08311 -22.488638 50.73356 0.94858414 -40.69492 -4.019479 0.04764377 0.10004372 0.047201794 -0.14036714 -0.08375823 0.021861574 -0.071515426 0.16069224 -0.05447025 7.6560407 5.405728 0.43295208 0.022504143 0.018007632 -0.082641795 2.8684134 1.0039458 0.006800184 0.12863451 0.053993605 0.054578457 10.248721 0.79929125 0.06822392 -0.0603499 -0.17682476 0.118735604 2.2577622 -0.5754887 -0.025479848 -0.054302014 -0.07693985 0.24796727 -97.41871 85.65501 79.23121 30.421644 -38.458073 -83.93987 1.5346165 -0.13731308 -2.575163 -0.0492848 -0.06902213 0.19305159 0.06869003 0.029303199 -0.045385096 0.09815757 0.2236613 0.17802235 -7.7624564 5.567815 -0.51888525 0.000751076 0.20442426 0.16956347 -3.0422828 1.0405773 -0.1963329 0.026045337 -0.14877462 -0.10738206 -10.331096 0.5768363 -0.22521715 -0.03259067 0.045965776 0.11168495 -2.1116776 -0.672448 0.1355573 0.026415693 -0.06969297 0.085990146 -24.161036 -46.472916 -28.06822 8.081963 75.292755 6.9624543 -3.654848 1.5186548 4.3424306 0.23113339 -0.14427628 -0.063343406 28.96302 -58.49631 29.875732 3.549709 79.62436 -2.3517416 5.6416454 -14.059995 10.637768
206.72493 64.8575 36.126736 -18.42527 69.526215 -18.29223 5.802551 14.635137 15.416689 -1.5697098 -12.742799 4.366756 -6.9332013 17.559187 -12.164083 10.116925 -35.431705 -21.697891 -0.11584333 -0.08333741 -0.0283863 0.0757409 0.10337442 0.033212006 0.08839104 0.035838604 -0.053559776 2.9627676 -9.821119 81.188286 -21.999231 -23.066458 51.997635 1.3865358 -41.929913 -2.6231182 0.058137204 0.094537646 0.05973905 -0.15943354 -0.08438431 0.025906032 -0.06316771 0.1359456 -0.02792706 7.639301 5.3976517 0.4553227 0.024582522 0.051526807 -0.10497435 2.8689718 0.9917761 0.020690514 0.15712377 0.03695773 0.09419655 10.243333 0.80202174 0.09205447 -0.05054475 -0.16659234 0.12204752 2.2606468 -0.57398665 -0.0301324 -0.045061182 -0.058778655 0.23615967 -95.30783 83.57021 78.76812 30.724424 -37.860714 -82.52401 1.3932531 2.181661 -1.9137155 -0.017508587 -0.061350383 0.18203731 0.106529586 0.047836017 -0.056645643 0.09003584 0.21614332 0.18761684 -7.75062 5.577731 -0.52017105 0.0039657806 0.21871156 0.16803168 -3.0465236 0.99202263 -0.16541624 0.027165297 -0.16714743 -0.08040418 -10.357916 0.5761947 -0.2245104 -0.028751042 0.069545396 0.13583916 -2.1084113 -0.689294 0.116426826 0.030190453 -0.078323826 0.05266144 -23.306034 -49.925114 -22.239426 6.9409266 75.870575 6.633703 -4.0719376 4.1380014 2.6341207 0.2709928 -0.14462504 -0.070687756 26.067041 -60.592842 28.962734 3.8895147 83.19044 -1.8887924 5.3859024 -15.0723 10.334315
